<?xml version="1.0" standalone="no"?>
<!DOCTYPE svg PUBLIC "-//W3C//DTD SVG 20010904//EN"
 "http://www.w3.org/TR/2001/REC-SVG-20010904/DTD/svg10.dtd">
<svg version="1.0" xmlns="http://www.w3.org/2000/svg"
 width="320.000000pt" height="320.000000pt" viewBox="0 0 320.000000 320.000000"
 preserveAspectRatio="xMidYMid meet">
<metadata>
Created by potrace 1.11, written by Peter Selinger 2001-2013
</metadata>
<g transform="translate(0.000000,320.000000) scale(0.100000,-0.100000)"
fill="#000000" stroke="none">
<path d="M172 3027 l-52 -53 0 -1370 0 -1370 53 -52 53 -52 1370 0 1370 0 52
53 52 53 0 1370 0 1370 -53 52 -53 52 -1370 0 -1370 0 -52 -53z m923 -899
l320 -542 3 542 2 542 120 0 120 0 0 -795 0 -796 -146 3 -146 3 -336 568 -337
568 -3 -571 -2 -570 -120 0 -120 0 0 795 0 795 163 0 162 -1 320 -541z m1422
48 c110 -50 196 -163 227 -296 11 -46 12 -62 3 -65 -7 -3 -49 -6 -95 -7 l-83
-3 -22 66 c-42 123 -103 174 -209 174 -76 -1 -131 -38 -171 -116 -74 -145 -74
-439 1 -585 36 -70 115 -124 182 -124 95 0 189 94 215 214 l6 28 77 -6 c114
-11 111 -8 101 -64 -24 -127 -111 -240 -227 -295 -64 -30 -73 -32 -187 -32
-111 0 -124 2 -177 28 -111 54 -206 188 -245 343 -24 96 -24 315 0 404 49 184
163 316 306 357 27 7 85 12 141 10 79 -3 105 -8 157 -31z m-1927 -1439 l65
-112 3 113 c2 104 4 112 22 112 19 0 20 -8 20 -160 l0 -160 -27 0 c-25 0 -35
13 -93 115 l-65 114 -3 -114 c-3 -115 -3 -115 -27 -115 l-25 0 0 160 0 160 33
0 c30 0 35 -6 97 -113z m470 88 c0 -20 -5 -25 -25 -25 -20 0 -25 5 -25 25 0
20 5 25 25 25 20 0 25 -5 25 -25z m696 10 c23 -10 39 -26 49 -49 19 -46 19
-46 -10 -46 -14 0 -25 4 -25 8 0 18 -42 52 -65 52 -39 0 -65 -43 -65 -110 0
-67 26 -110 66 -110 24 0 64 31 64 50 0 6 11 10 25 10 29 0 31 -10 9 -51 -15
-31 -66 -59 -104 -59 -94 0 -150 138 -100 248 29 64 88 86 156 57z m314 -10
c0 -20 -5 -25 -25 -25 -20 0 -25 5 -25 25 0 20 5 25 25 25 20 0 25 -5 25 -25z
m-1141 -90 c22 -22 26 -34 26 -85 0 -52 -4 -63 -28 -87 -39 -39 -105 -40 -143
-1 -39 38 -46 121 -14 161 13 16 32 33 44 38 33 14 88 2 115 -26z m131 -85 l0
-120 -25 0 -25 0 0 120 0 120 25 0 25 0 0 -120z m213 89 c18 -23 18 -23 -4
-31 -15 -6 -25 -4 -33 8 -18 23 -71 15 -71 -11 0 -16 11 -23 55 -33 61 -15 80
-32 80 -74 0 -38 -40 -63 -101 -63 -44 0 -89 23 -89 45 0 15 40 17 51 3 8 -9
26 -13 48 -11 28 2 36 7 36 23 0 16 -11 23 -48 32 -54 13 -73 26 -82 53 -8 26
12 69 37 80 37 16 100 4 121 -21z m234 -1 c12 -13 25 -38 29 -55 l7 -33 -82 0
c-71 0 -81 -2 -81 -18 0 -52 64 -81 96 -43 14 16 54 19 54 4 0 -19 -26 -43
-56 -53 -51 -17 -109 1 -129 40 -34 65 -9 156 49 181 32 13 87 2 113 -23z
m403 6 l0 -27 21 27 c26 33 49 34 49 2 0 -17 -7 -26 -24 -30 -31 -8 -46 -50
-46 -127 0 -56 -1 -59 -25 -59 l-25 0 0 120 0 120 25 0 c20 0 25 -5 25 -26z
m160 -94 l0 -120 -25 0 -25 0 0 120 0 120 25 0 25 0 0 -120z m110 98 c0 -20 1
-20 18 -5 10 9 32 20 49 23 25 5 37 1 56 -18 l24 -24 27 23 c33 28 66 29 97 4
22 -17 24 -28 27 -120 l4 -101 -31 0 -30 0 -3 98 c-3 97 -3 97 -30 100 -42 5
-58 -28 -58 -120 0 -77 0 -78 -25 -78 -25 0 -25 1 -25 83 0 98 -12 124 -54
113 -35 -9 -46 -40 -46 -127 0 -67 -1 -69 -25 -69 l-25 0 0 120 0 120 25 0
c19 0 25 -5 25 -22z m527 -10 c12 -13 25 -38 29 -55 l7 -33 -82 0 c-71 0 -81
-2 -81 -18 0 -52 64 -81 96 -43 14 16 54 19 54 4 0 -19 -26 -43 -56 -53 -51
-17 -109 1 -129 40 -34 65 -9 156 49 181 32 13 87 2 113 -23z"/>
<path d="M816 708 c-35 -49 -9 -138 38 -138 34 0 51 27 51 80 0 26 -6 54 -14
63 -19 24 -57 21 -75 -5z"/>
<path d="M1396 715 c-27 -27 -18 -35 40 -35 56 0 56 0 42 23 -19 27 -60 34
-82 12z"/>
<path d="M2596 715 c-27 -27 -18 -35 40 -35 56 0 56 0 42 23 -19 27 -60 34
-82 12z"/>
</g>
</svg>
